<mxfile host="app.diagrams.net" agent="Mozilla/5.0 (Windows NT 10.0; Win64; x64) AppleWebKit/537.36 (KHTML, like Gecko) Chrome/131.0.0.0 Safari/537.36 Edg/131.0.0.0" version="25.0.3">
  <diagram name="Página-1" id="j8myKMgSCKRaRatoByxT">
    <mxGraphModel dx="1026" dy="3073" grid="1" gridSize="10" guides="1" tooltips="1" connect="1" arrows="1" fold="1" page="1" pageScale="1" pageWidth="827" pageHeight="1169" math="0" shadow="0">
      <root>
        <mxCell id="0" />
        <mxCell id="1" parent="0" />
        <mxCell id="C-Qt1zAst1SYiSRQtAFm-9" value="Ejecución modelos predictivos" style="swimlane;childLayout=stackLayout;horizontal=1;startSize=50;horizontalStack=0;rounded=1;fontSize=14;fontStyle=0;strokeWidth=2;resizeParent=0;resizeLast=1;shadow=0;dashed=0;align=center;arcSize=4;whiteSpace=wrap;html=1;fillColor=#FFFFCC;" parent="1" vertex="1">
          <mxGeometry x="120" y="-1958" width="210" height="140" as="geometry">
            <mxRectangle x="300" y="-2330" width="150" height="50" as="alternateBounds" />
          </mxGeometry>
        </mxCell>
        <mxCell id="C-Qt1zAst1SYiSRQtAFm-10" value="- Como mejor modelo, se ha&amp;nbsp;&lt;div&gt;&amp;nbsp; seleccionado una de las&amp;nbsp;&lt;div&gt;&amp;nbsp; variantes de gradient boosting,&lt;/div&gt;&lt;div&gt;&amp;nbsp; concretament la implementación&amp;nbsp;&lt;/div&gt;&lt;div&gt;&amp;nbsp; de LightGBM.&lt;/div&gt;&lt;/div&gt;" style="align=left;strokeColor=none;fillColor=none;spacingLeft=4;fontSize=12;verticalAlign=top;resizable=0;rotatable=0;part=1;html=1;" parent="C-Qt1zAst1SYiSRQtAFm-9" vertex="1">
          <mxGeometry y="50" width="210" height="90" as="geometry" />
        </mxCell>
        <mxCell id="C-Qt1zAst1SYiSRQtAFm-1" value="Datos de entrada" style="swimlane;childLayout=stackLayout;horizontal=1;startSize=50;horizontalStack=0;rounded=1;fontSize=14;fontStyle=0;strokeWidth=2;resizeParent=0;resizeLast=1;shadow=0;dashed=0;align=center;arcSize=4;whiteSpace=wrap;html=1;fillColor=#CCFFFF;" parent="1" vertex="1">
          <mxGeometry x="120" y="-2158" width="210" height="150" as="geometry">
            <mxRectangle x="300" y="-2330" width="150" height="50" as="alternateBounds" />
          </mxGeometry>
        </mxCell>
        <mxCell id="C-Qt1zAst1SYiSRQtAFm-2" value="- Número de horas a predecir (8).&lt;div&gt;- Serie temporal horaria con la&amp;nbsp;&lt;/div&gt;&lt;div&gt;&amp;nbsp; cantidad de bicicletas en la&amp;nbsp;&lt;/div&gt;&lt;div&gt;&amp;nbsp; estación (últimas 48 horas).&lt;/div&gt;&lt;div&gt;- Variables explicativas del&lt;/div&gt;&lt;div&gt;&amp;nbsp; &amp;nbsp;modelo.&lt;/div&gt;" style="align=left;strokeColor=none;fillColor=none;spacingLeft=4;fontSize=12;verticalAlign=top;resizable=0;rotatable=0;part=1;html=1;" parent="C-Qt1zAst1SYiSRQtAFm-1" vertex="1">
          <mxGeometry y="50" width="210" height="100" as="geometry" />
        </mxCell>
        <mxCell id="C-Qt1zAst1SYiSRQtAFm-11" value="Datos de salida" style="swimlane;childLayout=stackLayout;horizontal=1;startSize=50;horizontalStack=0;rounded=1;fontSize=14;fontStyle=0;strokeWidth=2;resizeParent=0;resizeLast=1;shadow=0;dashed=0;align=center;arcSize=4;whiteSpace=wrap;html=1;fillColor=#CCFFFF;" parent="1" vertex="1">
          <mxGeometry x="120" y="-1758" width="210" height="150" as="geometry">
            <mxRectangle x="300" y="-2330" width="150" height="50" as="alternateBounds" />
          </mxGeometry>
        </mxCell>
        <mxCell id="C-Qt1zAst1SYiSRQtAFm-12" value="- Cantidad de bicicletas predichas&amp;nbsp;&lt;div&gt;&amp;nbsp; en cada estación y durante las&amp;nbsp;&lt;/div&gt;&lt;div&gt;&amp;nbsp; próximas 8 horas.&lt;/div&gt;&lt;div&gt;- Se crea un conjunto de datos con&lt;/div&gt;&lt;div&gt;&amp;nbsp; las predicciones de todas las&amp;nbsp;&lt;/div&gt;&lt;div&gt;&amp;nbsp; estaciones.&lt;/div&gt;" style="align=left;strokeColor=none;fillColor=none;spacingLeft=4;fontSize=12;verticalAlign=top;resizable=0;rotatable=0;part=1;html=1;" parent="C-Qt1zAst1SYiSRQtAFm-11" vertex="1">
          <mxGeometry y="50" width="210" height="100" as="geometry" />
        </mxCell>
        <mxCell id="C-Qt1zAst1SYiSRQtAFm-14" style="edgeStyle=orthogonalEdgeStyle;rounded=0;orthogonalLoop=1;jettySize=auto;html=1;exitX=0.5;exitY=1;exitDx=0;exitDy=0;entryX=0.5;entryY=0;entryDx=0;entryDy=0;" parent="1" source="C-Qt1zAst1SYiSRQtAFm-2" target="C-Qt1zAst1SYiSRQtAFm-9" edge="1">
          <mxGeometry relative="1" as="geometry" />
        </mxCell>
        <mxCell id="C-Qt1zAst1SYiSRQtAFm-17" value="Datos de entrada" style="swimlane;childLayout=stackLayout;horizontal=1;startSize=50;horizontalStack=0;rounded=1;fontSize=14;fontStyle=0;strokeWidth=2;resizeParent=0;resizeLast=1;shadow=0;dashed=0;align=center;arcSize=4;whiteSpace=wrap;html=1;fillColor=#CCFFFF;" parent="1" vertex="1">
          <mxGeometry x="480" y="-2158" width="210" height="150" as="geometry">
            <mxRectangle x="300" y="-2330" width="150" height="50" as="alternateBounds" />
          </mxGeometry>
        </mxCell>
        <mxCell id="C-Qt1zAst1SYiSRQtAFm-18" value="- Predicciones horarias.&lt;div&gt;- Número de camiones.&lt;/div&gt;&lt;div&gt;- Cantidad inicial de bicicletas en los&lt;/div&gt;&lt;div&gt;&amp;nbsp; camiones.&lt;/div&gt;&lt;div&gt;- Estación inicial.&lt;/div&gt;" style="align=left;strokeColor=none;fillColor=none;spacingLeft=4;fontSize=12;verticalAlign=top;resizable=0;rotatable=0;part=1;html=1;" parent="C-Qt1zAst1SYiSRQtAFm-17" vertex="1">
          <mxGeometry y="50" width="210" height="100" as="geometry" />
        </mxCell>
        <mxCell id="C-Qt1zAst1SYiSRQtAFm-19" style="edgeStyle=orthogonalEdgeStyle;rounded=0;orthogonalLoop=1;jettySize=auto;html=1;entryX=0;entryY=0.5;entryDx=0;entryDy=0;" parent="1" source="C-Qt1zAst1SYiSRQtAFm-12" target="C-Qt1zAst1SYiSRQtAFm-17" edge="1">
          <mxGeometry relative="1" as="geometry" />
        </mxCell>
        <mxCell id="C-Qt1zAst1SYiSRQtAFm-20" value="Ejecución modelo optimización" style="swimlane;childLayout=stackLayout;horizontal=1;startSize=50;horizontalStack=0;rounded=1;fontSize=14;fontStyle=0;strokeWidth=2;resizeParent=0;resizeLast=1;shadow=0;dashed=0;align=center;arcSize=4;whiteSpace=wrap;html=1;fillColor=#FFFFCC;" parent="1" vertex="1">
          <mxGeometry x="480" y="-1958" width="210" height="140" as="geometry">
            <mxRectangle x="300" y="-2330" width="150" height="50" as="alternateBounds" />
          </mxGeometry>
        </mxCell>
        <mxCell id="C-Qt1zAst1SYiSRQtAFm-21" value="- Como mejor modelo, se ha&lt;div&gt;&amp;nbsp; seleccionado el algoritmo de&lt;div&gt;&amp;nbsp; vecinos más cercanos con&amp;nbsp;&lt;/div&gt;&lt;div&gt;&amp;nbsp; aletaroriedad.&lt;/div&gt;&lt;div&gt;&lt;br&gt;&lt;/div&gt;&lt;/div&gt;" style="align=left;strokeColor=none;fillColor=none;spacingLeft=4;fontSize=12;verticalAlign=top;resizable=0;rotatable=0;part=1;html=1;" parent="C-Qt1zAst1SYiSRQtAFm-20" vertex="1">
          <mxGeometry y="50" width="210" height="90" as="geometry" />
        </mxCell>
        <mxCell id="C-Qt1zAst1SYiSRQtAFm-23" style="edgeStyle=orthogonalEdgeStyle;rounded=0;orthogonalLoop=1;jettySize=auto;html=1;entryX=0.5;entryY=0;entryDx=0;entryDy=0;" parent="1" source="C-Qt1zAst1SYiSRQtAFm-10" target="C-Qt1zAst1SYiSRQtAFm-11" edge="1">
          <mxGeometry relative="1" as="geometry" />
        </mxCell>
        <mxCell id="C-Qt1zAst1SYiSRQtAFm-26" style="edgeStyle=orthogonalEdgeStyle;rounded=0;orthogonalLoop=1;jettySize=auto;html=1;exitX=0.5;exitY=1;exitDx=0;exitDy=0;entryX=0.5;entryY=0;entryDx=0;entryDy=0;" parent="1" source="C-Qt1zAst1SYiSRQtAFm-18" target="C-Qt1zAst1SYiSRQtAFm-20" edge="1">
          <mxGeometry relative="1" as="geometry" />
        </mxCell>
        <mxCell id="C-Qt1zAst1SYiSRQtAFm-27" value="Datos de salida" style="swimlane;childLayout=stackLayout;horizontal=1;startSize=50;horizontalStack=0;rounded=1;fontSize=14;fontStyle=0;strokeWidth=2;resizeParent=0;resizeLast=1;shadow=0;dashed=0;align=center;arcSize=4;whiteSpace=wrap;html=1;fillColor=#CCFFFF;" parent="1" vertex="1">
          <mxGeometry x="480" y="-1758" width="210" height="150" as="geometry">
            <mxRectangle x="300" y="-2330" width="150" height="50" as="alternateBounds" />
          </mxGeometry>
        </mxCell>
        <mxCell id="C-Qt1zAst1SYiSRQtAFm-28" value="- Ruta de los camiones.&lt;div&gt;- Momento de visita a las estaciones.&lt;/div&gt;&lt;div&gt;- Cantidad de bicicletas en el camión&lt;/div&gt;&lt;div&gt;&amp;nbsp; tras cada visita.&lt;/div&gt;" style="align=left;strokeColor=none;fillColor=none;spacingLeft=4;fontSize=12;verticalAlign=top;resizable=0;rotatable=0;part=1;html=1;" parent="C-Qt1zAst1SYiSRQtAFm-27" vertex="1">
          <mxGeometry y="50" width="210" height="100" as="geometry" />
        </mxCell>
        <mxCell id="C-Qt1zAst1SYiSRQtAFm-29" style="edgeStyle=orthogonalEdgeStyle;rounded=0;orthogonalLoop=1;jettySize=auto;html=1;exitX=0.5;exitY=1;exitDx=0;exitDy=0;entryX=0.5;entryY=0;entryDx=0;entryDy=0;" parent="1" source="C-Qt1zAst1SYiSRQtAFm-21" target="C-Qt1zAst1SYiSRQtAFm-27" edge="1">
          <mxGeometry relative="1" as="geometry" />
        </mxCell>
        <mxCell id="C-Qt1zAst1SYiSRQtAFm-30" value="&lt;font style=&quot;font-size: 18px;&quot;&gt;&lt;b&gt;PREDICCIÓN&lt;/b&gt;&lt;/font&gt;" style="shape=ext;double=1;rounded=0;whiteSpace=wrap;html=1;fillColor=none;" parent="1" vertex="1">
          <mxGeometry x="120" y="-2240" width="210" height="60" as="geometry" />
        </mxCell>
        <mxCell id="C-Qt1zAst1SYiSRQtAFm-31" value="&lt;font style=&quot;font-size: 18px;&quot;&gt;&lt;b&gt;OPTIMIZACIÓN&lt;/b&gt;&lt;/font&gt;" style="shape=ext;double=1;rounded=0;whiteSpace=wrap;html=1;" parent="1" vertex="1">
          <mxGeometry x="480" y="-2240" width="210" height="60" as="geometry" />
        </mxCell>
        <mxCell id="BaOzk64zIeR04mQHTJTJ-2" value="&lt;b&gt;&lt;font style=&quot;font-size: 18px;&quot;&gt;OBSERVACIONES&lt;/font&gt;&lt;/b&gt;" style="swimlane;childLayout=stackLayout;horizontal=1;startSize=50;horizontalStack=0;rounded=1;fontSize=14;fontStyle=0;strokeWidth=2;resizeParent=0;resizeLast=1;shadow=0;dashed=0;align=center;arcSize=4;whiteSpace=wrap;html=1;fillColor=none;" vertex="1" parent="1">
          <mxGeometry x="120" y="-1580" width="570" height="170" as="geometry">
            <mxRectangle x="300" y="-2330" width="150" height="50" as="alternateBounds" />
          </mxGeometry>
        </mxCell>
        <mxCell id="BaOzk64zIeR04mQHTJTJ-3" value="- Este proceso se ejecuta al inicio de cada turno de los trabajadores (automatizado o técnico de &lt;i&gt;Bicing&lt;/i&gt;)&amp;nbsp;&lt;div&gt;- Los turnos establecidos son: de 00:00 a 08:00, de 08:00 a 16:00 y de 16:00 a 00:00.&lt;/div&gt;&lt;div&gt;- La duración del proceso se estima en menos de 15 minutos, puesto que para la predicción se necesitan&lt;/div&gt;&lt;div&gt;&amp;nbsp; 2 minutos aproximadamente y se ha limitado a 10 minutos el tiempo empleado parala obtención de&amp;nbsp;&lt;/div&gt;&lt;div&gt;&amp;nbsp; rutas con el algoritmo de&amp;nbsp;&lt;span style=&quot;background-color: initial;&quot;&gt;optimización.&lt;/span&gt;&lt;/div&gt;&lt;div&gt;&lt;span style=&quot;background-color: initial;&quot;&gt;- Los trabajadores encargados del reposicionamiento, recibirán la ruta que deben seguir, el momento de&amp;nbsp;&lt;/span&gt;&lt;/div&gt;&lt;div&gt;&lt;span style=&quot;background-color: initial;&quot;&gt;&amp;nbsp; visita a las estaciones y la cantidad&amp;nbsp;&lt;/span&gt;&lt;span style=&quot;background-color: initial;&quot;&gt;de bicicletas en el camión tras cada visita.&lt;/span&gt;&lt;/div&gt;&lt;div&gt;&lt;span style=&quot;background-color: initial;&quot;&gt;&lt;br&gt;&lt;/span&gt;&lt;/div&gt;" style="align=left;strokeColor=none;fillColor=none;spacingLeft=4;fontSize=12;verticalAlign=top;resizable=0;rotatable=0;part=1;html=1;" vertex="1" parent="BaOzk64zIeR04mQHTJTJ-2">
          <mxGeometry y="50" width="570" height="120" as="geometry" />
        </mxCell>
      </root>
    </mxGraphModel>
  </diagram>
</mxfile>
